<svg version="1.2" xmlns="http://www.w3.org/2000/svg" viewBox="0 0 137 104" width="137" height="104">
	<style>
		.s0 { fill: #868fc3 } 
		.s1 { fill: #fefefe } 
	</style>
	<g>
		<path fill-rule="evenodd" class="s0" d="m93.32 77.16v-70.13c0-4.02-2.21-6.24-6.23-6.24h-13.72c-4.02 0-6.24 2.22-6.24 6.24 0 0 0 15.31 0 33.3 0 0.94 9.04 5.3 9.27 6.22 6.89 26.9 1.5 48.43-5.03 49.44 10.67 0.52 11.85 5.65 3.9 2.15 1.21-14.36 5.96-14.33 19.6-0.53 0.12 0.12 2.8 5.74 2.96 5.74 15.34 0 32.22 0 32.22 0 4.02 0 6.24-2.22 6.24-6.23v-13.73c0-4.01-2.22-6.23-6.24-6.23z"/>
		<path fill-rule="evenodd" class="s1" d="m62.84 0.79l35.89 102.56h-27.86l-5.95-17.74h-30.5l-6.09 17.74h-28l36.04-102.56zm-3.75 62.09l-9.56-28.41-8.73 28.41z"/>
	</g>
</svg>